<svg xmlns="http://www.w3.org/2000/svg" viewBox="0 0 100 120" width="100" height="120">
  <defs>
    <radialGradient id="pwPawnBody" cx="40%" cy="30%" r="80%">
      <stop offset="0%" stop-color="#ffd1e3"></stop>
      <stop offset="35%" stop-color="#ff7aa8"></stop>
      <stop offset="75%" stop-color="#d6266a"></stop>
      <stop offset="100%" stop-color="#5a0a2a"></stop>
    </radialGradient>
    <linearGradient id="pwPawnBase" x1="0" y1="0" x2="0" y2="1">
      <stop offset="0%" stop-color="#ff4d8a"></stop>
      <stop offset="100%" stop-color="#7a0f3a"></stop>
    </linearGradient>
    <radialGradient id="pwPawnGlow" cx="50%" cy="50%" r="60%">
      <stop offset="0%" stop-color="#ff3d83" stop-opacity="0.55"></stop>
      <stop offset="100%" stop-color="#ff3d83" stop-opacity="0"></stop>
    </radialGradient>
    <filter id="pwPawnNeon" x="-50%" y="-50%" width="200%" height="200%">
      <feGaussianBlur stdDeviation="1.6" result="b"></feGaussianBlur>
      <feMerge><feMergeNode in="b"></feMergeNode><feMergeNode in="SourceGraphic"></feMergeNode></feMerge>
    </filter>
  </defs>

  
  <ellipse cx="50" cy="108" rx="36" ry="6" fill="url(#pwPawnGlow)"></ellipse>

  
  <ellipse cx="50" cy="105" rx="28" ry="5" fill="#3a0a1f"></ellipse>
  <ellipse cx="50" cy="103" rx="28" ry="5" fill="url(#pwPawnBase)"></ellipse>
  <ellipse cx="50" cy="101.5" rx="28" ry="5" fill="none" stroke="#ff7aa8" stroke-width="0.8" opacity="0.9" filter="url(#pwPawnNeon)"></ellipse>

  
  <path d="M38 100&#xA;           Q36 88 42 78&#xA;           L58 78&#xA;           Q64 88 62 100 Z" fill="url(#pwPawnBody)"></path>
  <path d="M38 100&#xA;           Q36 88 42 78&#xA;           L58 78&#xA;           Q64 88 62 100" fill="none" stroke="#ff7aa8" stroke-width="0.8" opacity="0.85" filter="url(#pwPawnNeon)"></path>

  
  <ellipse cx="50" cy="78" rx="16" ry="3.5" fill="#7a0f3a"></ellipse>
  <ellipse cx="50" cy="77" rx="16" ry="3.5" fill="url(#pwPawnBase)"></ellipse>
  <ellipse cx="50" cy="76" rx="16" ry="3" fill="none" stroke="#ffd1e3" stroke-width="0.6" opacity="0.85" filter="url(#pwPawnNeon)"></ellipse>

  
  <path d="M44 76 Q44 70 46 66 L54 66 Q56 70 56 76 Z" fill="url(#pwPawnBody)"></path>

  
  <circle cx="50" cy="50" r="16" fill="url(#pwPawnBody)"></circle>
  <circle cx="50" cy="50" r="16" fill="none" stroke="#ff2d7a" stroke-width="1" opacity="0.9" filter="url(#pwPawnNeon)"></circle>
  <circle cx="50" cy="50" r="12" fill="none" stroke="#ffd1e3" stroke-width="0.5" opacity="0.4"></circle>

  
  <ellipse cx="44" cy="44" rx="6" ry="3.5" fill="#ffffff" opacity="0.55"></ellipse>
  <ellipse cx="42" cy="42" rx="2.5" ry="1.5" fill="#ffffff" opacity="0.85"></ellipse>

  
  <g opacity="0.5">
    <line x1="38" y1="92" x2="62" y2="92" stroke="#ffd1e3" stroke-width="0.4"></line>
    <line x1="36" y1="98" x2="64" y2="98" stroke="#ffd1e3" stroke-width="0.4"></line>
  </g>
</svg>